<svg width="44" height="34" viewBox="0 0 44 34" fill="none" xmlns="http://www.w3.org/2000/svg">
<path d="M13.5 2C13.5 1.17157 12.8284 0.5 12 0.5C11.1716 0.5 10.5 1.17157 10.5 2H13.5ZM10.9393 33.0607C11.5251 33.6464 12.4749 33.6464 13.0607 33.0607L22.6066 23.5147C23.1924 22.9289 23.1924 21.9792 22.6066 21.3934C22.0208 20.8076 21.0711 20.8076 20.4853 21.3934L12 29.8787L3.51472 21.3934C2.92893 20.8076 1.97919 20.8076 1.3934 21.3934C0.807611 21.9792 0.807611 22.9289 1.3934 23.5147L10.9393 33.0607ZM10.5 2L10.5 32H13.5L13.5 2H10.5Z" fill="black"/>
<path d="M30.5 32C30.5 32.8284 31.1716 33.5 32 33.5C32.8284 33.5 33.5 32.8284 33.5 32H30.5ZM33.0607 0.939339C32.4749 0.353552 31.5251 0.353552 30.9393 0.939339L21.3934 10.4853C20.8076 11.0711 20.8076 12.0208 21.3934 12.6066C21.9792 13.1924 22.9289 13.1924 23.5147 12.6066L32 4.12132L40.4853 12.6066C41.0711 13.1924 42.0208 13.1924 42.6066 12.6066C43.1924 12.0208 43.1924 11.0711 42.6066 10.4853L33.0607 0.939339ZM33.5 32V2H30.5V32H33.5Z" fill="black"/>
</svg>
